<svg width="800" height="600" xmlns="http://www.w3.org/2000/svg" id="seatMap" sect_id="PARENT">

 <g>
  <title>Layer 1</title>
  <rect sect_id="1" height="120" width="233" y="106.5" x="47" stroke="#000" fill="red"/>
  <ellipse sect_id="2" ry="62.5" rx="127.5"  cy="192" cx="467.5" stroke="#000" fill="#000" onclick="alert('You have clicked the circle.')"/>
  <rect sect_id="3" height="123" width="162" y="354.5" x="95" stroke="#000" fill="#fff"/>
  <path sect_id="4" d="m359.20003,453.82747l0,0c0,-66.27417 69.39588,-120 155.00001,-120l0,0c41.10854,0 80.53342,12.64281 109.60154,35.14718c29.06815,22.50437 45.39847,53.02683 45.39847,84.85282l0,0c0,66.27416 -69.39588,120 -155.00001,120l0,0c-85.60413,0 -155.00001,-53.72585 -155.00001,-120zm77.50001,0l0,0c0,33.13708 34.69796,60 77.50001,60c42.80208,0 77.50001,-26.86293 77.50001,-60c0,-33.13708 -34.69795,-60 -77.50001,-60l0,0c-42.80205,0 -77.50001,26.86294 -77.50001,60z" stroke="#000" fill="#fff"/>
  <ellipse ry="28.5" rx="91" sect_id="5" cy="56" cx="637" stroke="#000" fill="#fff"/>
 </g>
</svg>